<mxfile host="app.diagrams.net" agent="Mozilla/5.0 (Macintosh; Intel Mac OS X 10_15_7) AppleWebKit/537.36 (KHTML, like Gecko) Chrome/131.0.0.0 Safari/537.36" version="25.0.1">
  <diagram name="Page-1" id="21ORsQWHsIKUVIGTKt5p">
    <mxGraphModel dx="954" dy="511" grid="1" gridSize="10" guides="1" tooltips="1" connect="1" arrows="1" fold="1" page="1" pageScale="1" pageWidth="827" pageHeight="1169" math="0" shadow="0">
      <root>
        <mxCell id="0" />
        <mxCell id="1" parent="0" />
        <mxCell id="0hRfQC4m2FfKHqGu2-95-2" value="Informacijski sustav za taksi službu" style="ellipse;whiteSpace=wrap;html=1;aspect=fixed;" parent="1" vertex="1">
          <mxGeometry x="340" y="230" width="100" height="100" as="geometry" />
        </mxCell>
        <mxCell id="0hRfQC4m2FfKHqGu2-95-5" value="" style="edgeStyle=orthogonalEdgeStyle;rounded=0;orthogonalLoop=1;jettySize=auto;html=1;" parent="1" source="0hRfQC4m2FfKHqGu2-95-3" target="0hRfQC4m2FfKHqGu2-95-2" edge="1">
          <mxGeometry relative="1" as="geometry" />
        </mxCell>
        <mxCell id="0hRfQC4m2FfKHqGu2-95-3" value="Korisnik (putnik)" style="rounded=0;whiteSpace=wrap;html=1;" parent="1" vertex="1">
          <mxGeometry x="330" y="60" width="120" height="60" as="geometry" />
        </mxCell>
        <mxCell id="0hRfQC4m2FfKHqGu2-95-10" value="Narudžba vožnje,&amp;nbsp;&lt;div&gt;Plaćanje vožnje,&lt;/div&gt;&lt;div&gt;Praćenje statusa vožnje,&lt;/div&gt;&lt;div&gt;Davanje povratnih informacija&lt;/div&gt;" style="text;html=1;align=center;verticalAlign=middle;resizable=0;points=[];autosize=1;strokeColor=none;fillColor=none;" parent="1" vertex="1">
          <mxGeometry x="250" y="120" width="180" height="70" as="geometry" />
        </mxCell>
        <mxCell id="0hRfQC4m2FfKHqGu2-95-13" value="" style="edgeStyle=orthogonalEdgeStyle;rounded=0;orthogonalLoop=1;jettySize=auto;html=1;entryX=1;entryY=0.5;entryDx=0;entryDy=0;" parent="1" target="0hRfQC4m2FfKHqGu2-95-3" edge="1">
          <mxGeometry relative="1" as="geometry">
            <mxPoint x="430" y="250" as="sourcePoint" />
            <mxPoint x="444" y="70" as="targetPoint" />
            <Array as="points">
              <mxPoint x="450" y="250" />
            </Array>
          </mxGeometry>
        </mxCell>
        <mxCell id="0hRfQC4m2FfKHqGu2-95-14" value="Podaci o korisniku,&lt;br&gt;ime, prezime i lokacija" style="text;html=1;align=center;verticalAlign=middle;resizable=0;points=[];autosize=1;strokeColor=none;fillColor=none;" parent="1" vertex="1">
          <mxGeometry x="470" y="135" width="140" height="40" as="geometry" />
        </mxCell>
        <mxCell id="0hRfQC4m2FfKHqGu2-95-15" value="Administrator sustava" style="rounded=0;whiteSpace=wrap;html=1;" parent="1" vertex="1">
          <mxGeometry x="70" y="250" width="120" height="60" as="geometry" />
        </mxCell>
        <mxCell id="0hRfQC4m2FfKHqGu2-95-16" value="" style="edgeStyle=orthogonalEdgeStyle;rounded=0;orthogonalLoop=1;jettySize=auto;html=1;exitX=1;exitY=0.5;exitDx=0;exitDy=0;" parent="1" edge="1" source="0hRfQC4m2FfKHqGu2-95-15">
          <mxGeometry relative="1" as="geometry">
            <mxPoint x="240" y="280" as="sourcePoint" />
            <mxPoint x="340" y="279.5" as="targetPoint" />
          </mxGeometry>
        </mxCell>
        <mxCell id="0hRfQC4m2FfKHqGu2-95-17" value="Upravljanje korisnicima i vozačima,&lt;div&gt;&lt;li&gt;Ažuriranje tarifa i ruta&lt;/li&gt;&lt;li&gt;Generiranje izvještaja,&lt;/li&gt;&lt;li&gt;Sigurnosne postavke sustava&lt;/li&gt;&lt;/div&gt;" style="text;html=1;align=center;verticalAlign=middle;resizable=0;points=[];autosize=1;strokeColor=none;fillColor=none;" parent="1" vertex="1">
          <mxGeometry x="170" y="190" width="210" height="70" as="geometry" />
        </mxCell>
        <mxCell id="0hRfQC4m2FfKHqGu2-95-18" value="Dispečer" style="rounded=0;whiteSpace=wrap;html=1;" parent="1" vertex="1">
          <mxGeometry x="330" y="430" width="120" height="60" as="geometry" />
        </mxCell>
        <mxCell id="0hRfQC4m2FfKHqGu2-95-22" value="" style="edgeStyle=orthogonalEdgeStyle;rounded=0;orthogonalLoop=1;jettySize=auto;html=1;" parent="1" edge="1">
          <mxGeometry relative="1" as="geometry">
            <mxPoint x="400" y="330" as="sourcePoint" />
            <mxPoint x="400" y="430" as="targetPoint" />
          </mxGeometry>
        </mxCell>
        <mxCell id="0hRfQC4m2FfKHqGu2-95-23" value="" style="edgeStyle=orthogonalEdgeStyle;rounded=0;orthogonalLoop=1;jettySize=auto;html=1;" parent="1" edge="1">
          <mxGeometry relative="1" as="geometry">
            <mxPoint x="379" y="430" as="sourcePoint" />
            <mxPoint x="379" y="330" as="targetPoint" />
          </mxGeometry>
        </mxCell>
        <mxCell id="0hRfQC4m2FfKHqGu2-95-24" value="&lt;div style=&quot;text-align: center;&quot;&gt;Upravljanje narudžbama,&lt;/div&gt;&lt;div style=&quot;text-align: center;&quot;&gt;&lt;li&gt;Raspoređivanje vožnji&lt;/li&gt;&lt;li&gt;&lt;/li&gt;&lt;/div&gt;" style="text;whiteSpace=wrap;html=1;" parent="1" vertex="1">
          <mxGeometry x="301" y="320" width="60" height="40" as="geometry" />
        </mxCell>
        <mxCell id="0hRfQC4m2FfKHqGu2-95-25" value="&lt;div style=&quot;text-align: center;&quot;&gt;Praćenje vozača i vozila,&lt;/div&gt;&lt;div style=&quot;text-align: center;&quot;&gt;Komunikacija s korisnicima i vozačima&lt;/div&gt;" style="text;whiteSpace=wrap;html=1;" parent="1" vertex="1">
          <mxGeometry x="409" y="330" width="60" height="70" as="geometry" />
        </mxCell>
        <mxCell id="0hRfQC4m2FfKHqGu2-95-27" value="Vozač taksija" style="rounded=0;whiteSpace=wrap;html=1;" parent="1" vertex="1">
          <mxGeometry x="610" y="250" width="120" height="60" as="geometry" />
        </mxCell>
        <mxCell id="0hRfQC4m2FfKHqGu2-95-28" value="" style="edgeStyle=orthogonalEdgeStyle;rounded=0;orthogonalLoop=1;jettySize=auto;html=1;exitX=1;exitY=0.5;exitDx=0;exitDy=0;entryX=-0.037;entryY=0.392;entryDx=0;entryDy=0;entryPerimeter=0;" parent="1" target="0hRfQC4m2FfKHqGu2-95-27" edge="1">
          <mxGeometry relative="1" as="geometry">
            <mxPoint x="440" y="275" as="sourcePoint" />
            <mxPoint x="590" y="275" as="targetPoint" />
          </mxGeometry>
        </mxCell>
        <mxCell id="0hRfQC4m2FfKHqGu2-95-29" value="&lt;div style=&quot;text-align: center;&quot;&gt;Primanje narudžbi,&lt;/div&gt;&lt;div style=&quot;text-align: center;&quot;&gt;Navigacija do korisnika,&lt;/div&gt;&lt;div style=&quot;text-align: center;&quot;&gt;Unos informacija o vožnji&lt;/div&gt;" style="text;whiteSpace=wrap;html=1;" parent="1" vertex="1">
          <mxGeometry x="450" y="220" width="160" height="20" as="geometry" />
        </mxCell>
        <mxCell id="0hRfQC4m2FfKHqGu2-95-32" value="" style="edgeStyle=orthogonalEdgeStyle;rounded=0;orthogonalLoop=1;jettySize=auto;html=1;exitX=0;exitY=0.75;exitDx=0;exitDy=0;" parent="1" source="0hRfQC4m2FfKHqGu2-95-27" edge="1">
          <mxGeometry relative="1" as="geometry">
            <mxPoint x="590" y="300" as="sourcePoint" />
            <mxPoint x="435" y="300" as="targetPoint" />
          </mxGeometry>
        </mxCell>
        <mxCell id="0hRfQC4m2FfKHqGu2-95-33" value="&lt;div style=&quot;text-align: center;&quot;&gt;&lt;span style=&quot;text-wrap: nowrap;&quot;&gt;Podaci o korisniku&lt;/span&gt;&lt;br&gt;&lt;/div&gt;" style="text;whiteSpace=wrap;html=1;" parent="1" vertex="1">
          <mxGeometry x="480" y="300" width="100" height="20" as="geometry" />
        </mxCell>
      </root>
    </mxGraphModel>
  </diagram>
</mxfile>
